Coordinates
version=1
nRows=17
nColumns=40
inDegrees=yes

Units are S.I. units (second, meters, Newtons, ...)
Angles are in degrees.

endheader
time	pelvis_tilt	pelvis_list	pelvis_rotation	pelvis_tx	pelvis_ty	pelvis_tz	hip_flexion_r	hip_adduction_r	hip_rotation_r	knee_angle_r	knee_angle_r_beta	ankle_angle_r	subtalar_angle_r	mtp_angle_r	hip_flexion_l	hip_adduction_l	hip_rotation_l	knee_angle_l	knee_angle_l_beta	ankle_angle_l	subtalar_angle_l	mtp_angle_l	lumbar_extension	lumbar_bending	lumbar_rotation	arm_flex_r	arm_add_r	arm_rot_r	elbow_flex_r	pro_sup_r	wrist_flex_r	wrist_dev_r	arm_flex_l	arm_add_l	arm_rot_l	elbow_flex_l	pro_sup_l	wrist_flex_l	wrist_dev_l
     54.89000000	     -4.41723852	     -6.13499232	      2.53634204	      0.95612716	      0.92693224	      0.51428179	     14.28040623	      3.36085251	    -17.94711604	     19.49687828	     19.49687828	     13.05098345	      4.12161697	     -3.14003322	     35.44305531	    -15.13314448	     -0.84238204	     62.37291775	     62.37291775	     15.42296890	    -19.26194599	     18.94276833	    -12.98096899	      7.59312355	      5.53615163	      2.56279478	    -17.05897739	    -13.25284751	     43.51926926	     45.79263829	      0.00000000	      0.00000000	      1.37652857	     -8.46406233	     -3.81572200	     68.52840571	     46.44945706	      0.00000000	      0.00000000
     54.90192857	     -4.44534225	     -6.11045301	      2.71873842	      0.95479679	      0.92708347	      0.51450481	     13.53026689	      3.51030751	    -17.83513576	     18.98567788	     18.98567788	     13.34323265	      3.94507176	     -3.15902331	     36.61857943	    -14.94076044	     -0.67260940	     60.57874895	     60.57874895	     15.04711385	    -19.24865129	     18.95909649	    -12.98680792	      7.47983861	      4.92289722	      5.21979693	    -17.24679586	    -13.27268466	     45.77401673	     45.72462819	      0.00000000	      0.00000000	     -0.45513002	     -8.65907434	     -3.69127988	     65.66816689	     46.40249068	      0.00000000	      0.00000000
     54.91385714	     -4.50555894	     -6.04537305	      2.85586894	      0.95347452	      0.92714936	      0.51455396	     12.80584085	      3.61465637	    -17.64658021	     18.44274479	     18.44274479	     13.55363808	      3.70504623	     -3.19258205	     37.63033514	    -14.68049988	     -0.59533664	     58.55291405	     58.55291405	     14.64738992	    -19.21947923	     18.98687765	    -12.98453075	      7.36643251	      4.53773624	      7.74228527	    -17.52938474	    -13.06252891	     48.22047021	     45.63894371	      0.00000000	      0.00000000	     -1.99725776	     -8.58543392	     -3.67678826	     62.38830771	     46.35910106	      0.00000000	      0.00000000
     54.92578571	     -4.51384351	     -6.11014055	      3.01092233	      0.95217907	      0.92715880	      0.51462526	     12.07350248	      3.87412613	    -17.41007665	     17.93573181	     17.93573181	     13.55569225	      3.19306021	     -3.72594979	     38.49930618	    -14.51177465	     -0.40523973	     56.36822890	     56.36822890	     13.76982392	    -19.22113808	     18.43331942	    -12.97997447	      7.48202635	      5.25986419	      8.55782306	    -18.96010668	    -10.98804089	     52.96973063	     45.38769018	      0.00000000	      0.00000000	     -1.37067068	     -7.51877972	     -4.85797953	     55.09484462	     46.42882231	      0.00000000	      0.00000000
     54.93771429	     -4.53445082	     -6.05126804	      3.13490583	      0.95099876	      0.92712751	      0.51464796	     11.30329646	      3.98783870	    -17.19134556	     17.37893662	     17.37893662	     13.81093510	      3.02833138	     -3.78434730	     39.18115483	    -14.17500091	     -0.27195362	     53.99852943	     53.99852943	     13.15359191	    -19.17097854	     18.68502762	    -13.01152974	      7.33359729	      4.78230934	     11.12140408	    -18.97764920	    -10.82972728	     55.35394166	     45.31231224	      0.00000000	      0.00000000	     -2.90105689	     -7.65147529	     -4.69986502	     52.48997068	     46.38287264	      0.00000000	      0.00000000
     54.94964286	     -4.60825070	     -6.09449776	      3.24560638	      0.94976325	      0.92689490	      0.51448721	     10.63036864	      4.20080183	    -16.93092740	     16.84027115	     16.84027115	     13.82523776	      2.61939291	     -4.24239928	     39.85257397	    -13.88472588	     -0.04555764	     51.53742965	     51.53742965	     12.14422927	    -19.11503903	     18.13084080	    -12.96929620	      7.39481800	      5.25843952	     12.57744188	    -20.25925944	     -8.81832714	     58.93387639	     45.13223997	      0.00000000	      0.00000000	     -2.55403296	     -7.02519835	     -5.35972495	     46.24503807	     46.41677620	      0.00000000	      0.00000000
     54.96157143	     -4.62667903	     -6.07828082	      3.36737621	      0.94865086	      0.92672344	      0.51417112	      9.87165477	      4.31849853	    -16.77445188	     16.30366725	     16.30366725	     14.03713531	      2.54335639	     -4.32187061	     40.32693986	    -13.45161581	      0.26258109	     48.96700030	     48.96700030	     11.31926308	    -18.99410387	     18.26879059	    -13.01676592	      7.33840807	      4.97992848	     15.06024147	    -20.30795537	     -8.51237051	     61.24578356	     45.05854631	      0.00000000	      0.00000000	     -3.83900231	     -7.06473669	     -5.39346111	     43.77613941	     46.39200353	      0.00000000	      0.00000000
     54.97350000	     -4.67635481	     -6.14321547	      3.48063563	      0.94760881	      0.92642294	      0.51374202	      9.12754270	      4.51558022	    -16.67073413	     15.71968238	     15.71968238	     14.15461634	      2.46348597	     -4.48552443	     40.74961353	    -13.06133895	      0.65561411	     46.32084751	     46.32084751	     10.30768200	    -18.74731086	     17.78850046	    -13.01931624	      7.37452453	      4.85203581	     17.30894607	    -20.70815105	     -7.24633859	     63.90085482	     44.94149966	      0.00000000	      0.00000000	     -4.51875587	     -6.94039454	     -5.62132091	     40.03234170	     46.38780686	      0.00000000	      0.00000000
     54.98542857	     -4.73850800	     -6.17564879	      3.58193286	      0.94665535	      0.92607117	      0.51313960	      8.36742372	      4.65328227	    -16.61536398	     15.10558992	     15.10558992	     14.28074302	      2.56365633	     -4.68829382	     41.04696098	    -12.60164250	      1.08351355	     43.57031936	     43.57031936	      9.15635123	    -18.41535623	     17.00285615	    -13.01971093	      7.38177850	      4.96844885	     19.38339727	    -21.36187055	     -5.74221670	     66.39626086	     44.82507454	      0.00000000	      0.00000000	     -5.02355738	     -6.77618812	     -5.95657661	     36.48957807	     46.40429218	      0.00000000	      0.00000000
     54.99735714	     -4.79336756	     -6.13844010	      3.65014475	      0.94586676	      0.92581818	      0.51244922	      7.57172842	      4.70583761	    -16.57122990	     14.47885795	     14.47885795	     14.42742793	      2.78337165	     -4.79236533	     41.15974618	    -12.10035526	      1.42313336	     40.71641404	     40.71641404	      8.15837075	    -17.84228988	     16.59094337	    -12.98680253	      7.24604105	      5.13102145	     21.37814235	    -21.72418910	     -4.77044117	     68.39993616	     44.74157990	      0.00000000	      0.00000000	     -5.81582166	     -6.80441814	     -6.17820492	     34.11686861	     46.41413401	      0.00000000	      0.00000000
     55.00928571	     -4.88178939	     -6.37638882	      3.73520054	      0.94520503	      0.92521947	      0.51165596	      6.77678710	      5.02894855	    -16.76059901	     13.77057471	     13.77057471	     14.46589992	      3.32337541	     -5.06030131	     41.35593120	    -11.90655829	      1.82026347	     37.99990454	     37.99990454	      6.92811859	    -16.80073453	     14.72607667	    -12.93107176	      7.49387495	      5.25937445	     23.39746833	    -22.72403920	     -2.41575470	     70.93315340	     44.60889097	      0.00000000	      0.00000000	     -6.07185985	     -6.65855598	     -6.68443002	     30.28788018	     46.47499921	      0.00000000	      0.00000000
     55.02121429	     -4.95580412	     -6.41641758	      3.79044484	      0.94482283	      0.92467717	      0.51074400	      5.93047192	      5.13432203	    -16.89897260	     13.07860869	     13.07860869	     14.66030279	      3.85749857	     -5.34190206	     41.27158745	    -11.61467546	      1.84289434	     35.13596123	     35.13596123	      5.65330483	    -15.57599197	     12.48154045	    -12.80955844	      7.48756830	      5.54647663	     25.34826804	    -23.63739182	     -0.57939124	     72.77456597	     44.54790979	      0.00000000	      0.00000000	     -6.34652386	     -6.49746658	     -7.74916837	     27.34830947	     46.63144234	      0.00000000	      0.00000000
     55.03314286	     -4.96244356	     -6.48289862	      3.87112054	      0.94474000	      0.92421119	      0.50978887	      4.92547750	      5.29885562	    -17.04552382	     12.26107355	     12.26107355	     14.84847939	      4.37582051	     -5.30004332	     41.11998918	    -11.38087097	      1.76183832	     32.58069245	     32.58069245	      5.41166018	    -13.82048855	     12.55014612	    -12.73700716	      7.45742508	      5.49806510	     27.32084462	    -23.47670590	     -0.44839612	     74.29002494	     44.51294741	      0.00000000	      0.00000000	     -7.50161236	     -6.66273785	     -7.89188354	     26.36002160	     46.63472731	      0.00000000	      0.00000000
     55.04507143	     -5.06265054	     -6.68629695	      3.91804472	      0.94475141	      0.92338119	      0.50877357	      4.03551646	      5.58255698	    -17.27370000	     11.46475306	     11.46475306	     15.02057567	      5.15652063	     -5.28733044	     41.06643993	    -11.28009239	      1.70674106	     30.28623822	     30.28623822	      5.34937989	    -11.99939148	     12.46933277	    -12.65332213	      7.58354587	      5.52900350	     29.25360617	    -23.61782817	      0.03976155	     75.69597653	     44.47139779	      0.00000000	      0.00000000	     -8.50403329	     -6.75617214	     -7.97873972	     25.30987586	     46.63393822	      0.00000000	      0.00000000
     55.05700000	     -5.09963208	     -6.81555949	      3.92761553	      0.94514252	      0.92258377	      0.50768101	      3.03926461	      5.78355596	    -17.46762453	     10.66974808	     10.66974808	     15.23921618	      5.98129698	     -5.25210619	     40.80262299	    -11.18068613	      1.33336693	     28.14485800	     28.14485800	      5.30252504	    -10.32649670	     12.52607120	    -12.52136946	      7.65919959	      5.54719410	     31.00121747	    -23.66363764	      0.55632137	     76.99314276	     44.43080395	      0.00000000	      0.00000000	     -9.54343977	     -6.92950955	     -8.02000519	     24.39088423	     46.62538187	      0.00000000	      0.00000000
     55.06892857	     -5.14734297	     -6.98657277	      3.91126024	      0.94582218	      0.92155450	      0.50650397	      2.04453476	      6.02111568	    -17.68517827	      9.89253822	      9.89253822	     15.46909662	      6.86865945	     -5.17221423	     40.49721694	    -11.13830534	      0.84434738	     26.29043391	     26.29043391	      5.35335776	     -8.86286310	     12.60146524	    -12.33982875	      7.77461193	      5.51190324	     32.71060427	    -23.67142108	      1.06628632	     78.21510191	     44.39445543	      0.00000000	      0.00000000	    -10.57309859	     -7.04555490	     -8.01362796	     23.67202876	     46.60646206	      0.00000000	      0.00000000
     55.08085714	     -5.22508391	     -7.16870512	      3.84396074	      0.94676463	      0.92025392	      0.50525907	      1.11336208	      6.24403390	    -17.86479143	      9.21884859	      9.21884859	     15.77556285	      7.72738798	     -5.04853862	     40.15729917	    -11.12308451	      0.25898190	     24.74598888	     24.74598888	      5.49904568	     -7.77076278	     12.70372516	    -12.10267719	      7.87705120	      5.47945041	     34.30833365	    -23.59949234	      1.48706637	     79.29628305	     44.36669049	      0.00000000	      0.00000000	    -11.64654196	     -7.14940214	     -7.97378498	     23.20684615	     46.57767987	      0.00000000	      0.00000000
